<svg xmlns="http://www.w3.org/2000/svg" xmlns:xlink="http://www.w3.org/1999/xlink" viewBox="0 0 48 48"><defs><radialGradient xlink:href="#a" id="h" cx="16.6" cy="-29.7" r="16.5" fx="16.6" fy="-29.7" gradientTransform="matrix(-2.193 0 0 .917 44.5 59.3)" gradientUnits="userSpaceOnUse"/><radialGradient xlink:href="#b" id="e" cx="34.7" cy="20.3" r="17" fx="34.7" fy="20.3" gradientTransform="matrix(0 .843 -1.02 0 46.4 1.4)" gradientUnits="userSpaceOnUse"/><radialGradient xlink:href="#c" id="d" cx="24.8" cy="36.4" r="15.6" fx="24.8" fy="36.4" gradientTransform="matrix(1 0 0 .537 0 16.9)" gradientUnits="userSpaceOnUse"/><radialGradient xlink:href="#a" id="f" cx="16" cy="1.5" r="17.2" fx="16" fy="1.5" gradientTransform="matrix(0 2.047 1.558 0 3 -23)" gradientUnits="userSpaceOnUse"/><radialGradient xlink:href="#b" id="g" cx="13.9" cy="36.4" r="16.5" fx="13.9" fy="36.4" gradientTransform="matrix(1 -.005 .004 .792 -.2 10.4)" gradientUnits="userSpaceOnUse"/><linearGradient id="b"><stop offset="0" stop-color="#73d216"/><stop offset="1" stop-color="#4e9a06"/></linearGradient><linearGradient id="c"><stop offset="0"/><stop offset="1" stop-opacity="0"/></linearGradient><linearGradient id="a"><stop offset="0" stop-color="#fff"/><stop offset="1" stop-color="#fff" stop-opacity="0"/></linearGradient></defs><path fill="url(#d)" fill-rule="evenodd" d="M40.5 36.4a15.6 8.4 0 1 1-31.3 0 15.6 8.4 0 1 1 31.3 0z" color="#000" opacity=".2" overflow="visible" style="marker:none" transform="matrix(1.214 0 0 .595 -6.2 20.2)"/><path fill="url(#e)" fill-rule="evenodd" stroke="#3b7502" stroke-linecap="round" stroke-linejoin="round" stroke-miterlimit="10" d="M40.5 42.5v-6H25.4l15-18h-7.9v-13h-18v13h-8l15.4 18H6.5v6h34z" color="#000" overflow="visible" style="marker:none"/><path fill="url(#f)" fill-rule="evenodd" d="M7.6 19H15V6h15.4C29.6 24.4 19.7 17 15 27.7L7.6 19z" color="#000" opacity=".5" overflow="visible" style="marker:none"/><path fill="none" stroke="#fff" stroke-miterlimit="10" d="M31.5 6.5h-16v13H8.7l14.4 17h1l14.2-17h-6.8v-13z" color="#000" opacity=".5" overflow="visible" style="marker:none"/><path fill="url(#g)" fill-rule="evenodd" stroke="#fff" d="M7.5 37.5h32v4h-32z" opacity=".5"/><path fill="url(#h)" fill-rule="evenodd" d="M40 40.8c-12-4-29.4 1.3-33-1.3V37h33v3.8z" opacity=".2"/></svg>