<svg xmlns="http://www.w3.org/2000/svg" xmlns:xlink="http://www.w3.org/1999/xlink" viewBox="0 0 48 48"><defs><linearGradient id="c"><stop offset="0" stop-color="#3a7304"/><stop offset="1" stop-color="#3a7304" stop-opacity="0"/></linearGradient><linearGradient id="b"><stop offset="0" stop-color="#fff"/><stop offset="1" stop-color="#fff" stop-opacity="0"/></linearGradient><linearGradient id="a"><stop offset="0" stop-color="#519e07"/><stop offset="1" stop-color="#6cc813"/></linearGradient><linearGradient id="d"><stop offset="0"/><stop offset="1" stop-opacity="0"/></linearGradient><linearGradient xlink:href="#a" id="f" x1="22" x2="19.4" y1="16.6" y2="12.4" gradientTransform="translate(-4.7 -1.4) scale(1.172)" gradientUnits="userSpaceOnUse"/><linearGradient xlink:href="#b" id="h" x1="14.3" x2="10" y1="15.2" y2="23.1" gradientTransform="translate(-4.7 -1.4) scale(1.172)" gradientUnits="userSpaceOnUse"/><linearGradient xlink:href="#c" id="g" x1="12.1" x2="6.1" y1="24.6" y2="29.8" gradientUnits="userSpaceOnUse"/><radialGradient xlink:href="#d" id="e" cx="24.8" cy="36.4" r="15.6" fx="24.8" fy="36.4" gradientTransform="matrix(1 0 0 .537 0 16.9)" gradientUnits="userSpaceOnUse"/></defs><g color="#000"><path fill="url(#e)" fill-rule="evenodd" d="M40.5 36.4a15.6 8.4 0 1 1-31.3 0 15.6 8.4 0 1 1 31.3 0z" opacity=".1" overflow="visible" style="marker:none" transform="matrix(1.49 0 0 -1.001 -12.3 72)"/><path fill="url(#f)" stroke="url(#g)" d="M4.4 35.2C3-4.8 38 1.8 36.9 22.6h9.4L31.7 34.3 16.4 22.6h9.7c.6-14-21.4-18.5-21.7 12.6z" display="block" overflow="visible" style="marker:none"/><path fill="none" stroke="url(#h)" d="M4.4 33.8C4.4-2.3 38 2 35.8 23.6h7.6L31.6 33l-12.2-9.4H27C28 5.6 3.2 4.7 4.4 33.8z" display="block" opacity=".4" overflow="visible" style="marker:none"/></g></svg>