<svg xmlns="http://www.w3.org/2000/svg" xmlns:xlink="http://www.w3.org/1999/xlink" viewBox="0 0 48 48"><defs><radialGradient xlink:href="#a" id="f" cx="24.5" cy=".4" r="17.2" fx="24.5" fy=".4" gradientTransform="matrix(0 -2.047 1.558 0 2.8 67)" gradientUnits="userSpaceOnUse"/><radialGradient xlink:href="#b" id="e" cx="11.3" cy="22.5" r="17" fx="11.3" fy="22.5" gradientTransform="matrix(0 -.843 1.02 0 .6 42.6)" gradientUnits="userSpaceOnUse"/><radialGradient xlink:href="#c" id="d" cx="24.8" cy="36.4" r="15.6" fx="24.8" fy="36.4" gradientTransform="matrix(1 0 0 .537 0 16.9)" gradientUnits="userSpaceOnUse"/><linearGradient id="b"><stop offset="0" stop-color="#73d216"/><stop offset="1" stop-color="#4e9a06"/></linearGradient><linearGradient id="c"><stop offset="0"/><stop offset="1" stop-opacity="0"/></linearGradient><linearGradient id="a"><stop offset="0" stop-color="#fff"/><stop offset="1" stop-color="#fff" stop-opacity="0"/></linearGradient></defs><g color="#000"><path fill="url(#d)" fill-rule="evenodd" d="M40.5 36.4a15.6 8.4 0 1 1-31.3 0 15.6 8.4 0 1 1 31.3 0z" opacity=".3" overflow="visible" style="marker:none" transform="matrix(1.214 0 0 .595 -6.2 16.3)"/><path fill="url(#e)" fill-rule="evenodd" stroke="#3a7304" stroke-linecap="round" stroke-linejoin="round" stroke-miterlimit="10" d="M14.5 38.5h18v-13h8l-17.1-20-16.9 20h8v13z" overflow="visible" style="marker:none"/><path fill="url(#f)" fill-rule="evenodd" d="M7.6 25H15v6.6c5.7-11 16-8.9 16.7-15.6l-8.3-9.6L7.6 25z" opacity=".5" overflow="visible" style="marker:none"/><path fill="none" stroke="#fff" stroke-miterlimit="10" d="M15.6 37.5h15.9v-13h6.8l-15-17.4L8.8 24.6h6.8l.1 12.9z" opacity=".5" overflow="visible" style="marker:none"/></g></svg>