<svg xmlns="http://www.w3.org/2000/svg" xmlns:xlink="http://www.w3.org/1999/xlink" viewBox="0 0 48 48"><defs><linearGradient id="c"><stop offset="0"/><stop offset="1" stop-color="#fff" stop-opacity=".7"/></linearGradient><linearGradient id="b"><stop offset="0"/><stop offset="1" stop-color="#fff" stop-opacity="0"/></linearGradient><linearGradient id="a"><stop offset="0" stop-color="#adb0a8"/><stop offset="1" stop-color="#464744"/></linearGradient><linearGradient id="d"><stop offset="0" stop-color="#fff"/><stop offset="1" stop-color="#d3d7cf"/></linearGradient><linearGradient xlink:href="#a" id="i" x1="55.6" x2="55.8" y1="157.6" y2="140.3" gradientTransform="matrix(-1 0 0 1 94 -121)" gradientUnits="userSpaceOnUse"/><linearGradient xlink:href="#b" id="h" x1="49.4" x2="49.7" y1="112.9" y2="115.1" gradientTransform="matrix(-1 0 0 1 91 -97.3)" gradientUnits="userSpaceOnUse"/><linearGradient xlink:href="#c" id="e" x1="24.5" x2="23.8" y1="13.7" y2="36" gradientTransform="matrix(-1 0 0 1 46 0)" gradientUnits="userSpaceOnUse"/><linearGradient xlink:href="#a" id="k" x1="54" x2="54" y1="132.5" y2="145" gradientTransform="rotate(180 46.5 84.5)" gradientUnits="userSpaceOnUse"/><radialGradient xlink:href="#d" id="g" cx="64.2" cy="148" r="8.8" fx="64.2" fy="148" gradientTransform="matrix(-.223 -.996 -2.13 .476 337 20.9)" gradientUnits="userSpaceOnUse"/><radialGradient xlink:href="#d" id="f" cx="64.2" cy="148" r="8.8" fx="64.2" fy="148" gradientTransform="matrix(-.223 -.996 -2.13 .476 355 20.9)" gradientUnits="userSpaceOnUse"/><radialGradient xlink:href="#d" id="j" cx="64.2" cy="148" r="8.8" fx="64.2" fy="148" gradientTransform="matrix(-.223 -.996 -2.13 .476 372 20.9)" gradientUnits="userSpaceOnUse"/></defs><g color="#000"><path fill="none" stroke="url(#e)" stroke-linecap="square" stroke-linejoin="round" stroke-width="3" d="M4.5 13.5v21L22 24 4.5 13.5zm18 0v21l17-10.2v10.2h5v-21h-5v10.2l-17-10.2z" opacity=".1" overflow="visible" style="marker:none"/><path fill="url(#f)" fill-rule="evenodd" d="M22.5 13.5 40 24 22.5 34.5v-21z" overflow="visible" style="marker:none"/><path fill="url(#g)" fill-rule="evenodd" d="M4.5 13.5 22 24 4.5 34.5v-21z" overflow="visible" style="marker:none"/><path fill="url(#h)" fill-rule="evenodd" d="m4.5 13.5 1.2.7-1.2-.1v-.6zm18 .3h.5l4 2.4-4.5-.4v-2z" opacity=".1" overflow="visible" style="marker:none"/><path fill="none" stroke="url(#i)" stroke-linecap="square" stroke-linejoin="round" d="M22.5 13.5 40 24 22.5 34.5v-21zm-18 0L22 24 4.5 34.5v-21z" overflow="visible" style="marker:none"/><path fill="#fff" fill-rule="evenodd" d="M23 14.4 39 24l-16 9.6V14.4zm-18 0L21 24 5 33.6V14.4zm19 1.8v15.6L37 24l-13-7.8zm-18 0v15.6L19 24 6 16.2z" overflow="visible" style="marker:none"/><path fill="#fff" fill-rule="evenodd" d="M33.6 21.8 24 16.2v6l9.5-.4zm-15.3 1.4L6 16.2V24l12.3-.9z" opacity=".6" overflow="visible" style="marker:none"/><path fill="url(#j)" fill-rule="evenodd" d="M39.5 13.5h5v21h-5v-21z" overflow="visible" style="marker:none"/><path fill="none" stroke="#fff" stroke-linecap="square" d="M-43.5-33.5h3v19h-3z" overflow="visible" style="marker:none" transform="scale(-1)"/><path fill="none" stroke="url(#k)" stroke-linecap="square" stroke-linejoin="round" d="M44.5 34.5v-21h-5v21h5z" overflow="visible" style="marker:none"/><path fill="#fff" fill-rule="evenodd" d="m41 22 2-.2V15h-2v7z" opacity=".6" overflow="visible" style="marker:none"/></g></svg>