<svg xmlns="http://www.w3.org/2000/svg" xmlns:xlink="http://www.w3.org/1999/xlink" viewBox="0 0 48 48"><defs><radialGradient xlink:href="#a" id="j" cx="605.7" cy="486.6" r="117.1" fx="605.7" fy="486.6" gradientTransform="matrix(-2.774 0 0 1.97 112.8 -872.9)" gradientUnits="userSpaceOnUse"/><radialGradient xlink:href="#a" id="i" cx="605.7" cy="486.6" r="117.1" fx="605.7" fy="486.6" gradientTransform="matrix(2.774 0 0 1.97 -1891.6 -872.9)" gradientUnits="userSpaceOnUse"/><radialGradient id="f" cx="20.9" cy="64.6" r="5.3" fx="20.9" fy="64.6" gradientUnits="userSpaceOnUse"><stop offset="0" stop-color="#f0f0f0"/><stop offset="1" stop-color="#9a9a9a"/></radialGradient><radialGradient id="e" cx="20.9" cy="114.6" r="5.3" fx="20.9" fy="114.6" gradientUnits="userSpaceOnUse"><stop offset="0" stop-color="#f0f0f0"/><stop offset="1" stop-color="#9a9a9a"/></radialGradient><radialGradient xlink:href="#b" id="l" cx="8.8" cy="3.8" r="37.8" fx="8.8" fy="3.8" gradientTransform="matrix(.968 0 0 1.033 3.4 .6)" gradientUnits="userSpaceOnUse"/><radialGradient xlink:href="#c" id="k" cx="34" cy="35.7" r="86.7" fx="34" fy="35.7" gradientTransform="scale(.96 1.041)" gradientUnits="userSpaceOnUse"/><radialGradient xlink:href="#d" id="m" cx="8.1" cy="7.3" r="38.2" fx="8.1" fy="7.3" gradientTransform="matrix(.968 0 0 1.033 3.4 .6)" gradientUnits="userSpaceOnUse"/><radialGradient xlink:href="#e" id="n" cx="20.9" cy="114.6" r="5.3" fx="20.9" fy="114.6" gradientTransform="matrix(.23 0 0 .23 4.6 4)" gradientUnits="userSpaceOnUse"/><radialGradient xlink:href="#f" id="o" cx="20.9" cy="64.6" r="5.3" fx="20.9" fy="64.6" gradientTransform="matrix(.23 0 0 .23 4.6 4)" gradientUnits="userSpaceOnUse"/><linearGradient id="a"><stop offset="0"/><stop offset="1" stop-opacity="0"/></linearGradient><linearGradient id="g"><stop offset="0" stop-opacity="0"/><stop offset=".5"/><stop offset="1" stop-opacity="0"/></linearGradient><linearGradient xlink:href="#g" id="h" x1="302.9" x2="302.9" y1="366.6" y2="609.5" gradientTransform="matrix(2.774 0 0 1.97 -1892.2 -872.9)" gradientUnits="userSpaceOnUse"/><linearGradient id="d"><stop offset="0" stop-color="#fff"/><stop offset="1" stop-color="#f8f8f8"/></linearGradient><linearGradient id="b"><stop offset="0" stop-color="#a3a3a3"/><stop offset="1" stop-color="#4c4c4c"/></linearGradient><linearGradient id="c"><stop offset="0" stop-color="#fafafa"/><stop offset="1" stop-color="#bbb"/></linearGradient></defs><g color="#000"><path fill="url(#h)" d="M-1559.3-150.7h1339.6v478.4h-1339.6z" opacity=".4" overflow="visible" style="marker:none" transform="matrix(.021 0 0 .02 42.9 41.2)"/><path fill="url(#i)" d="M-219.6-150.7v478.4c142.9.9 345.4-107.2 345.4-239.2S-33.7-150.7-219.6-150.7z" opacity=".4" overflow="visible" style="marker:none" transform="matrix(.021 0 0 .02 42.9 41.2)"/><path fill="url(#j)" d="M-1559.3-150.7v478.4c-142.8.9-345.4-107.2-345.4-239.2s159.5-239.2 345.4-239.2z" opacity=".4" overflow="visible" style="marker:none" transform="matrix(.021 0 0 .02 42.9 41.2)"/></g><rect width="34.9" height="40.9" x="6.6" y="3.6" fill="url(#k)" stroke="url(#l)" stroke-linecap="round" stroke-linejoin="round" color="#000" display="block" overflow="visible" ry="1.1" style="marker:none"/><rect width="32.8" height="38.9" x="7.7" y="4.6" fill="none" stroke="url(#m)" stroke-linecap="round" stroke-linejoin="round" color="#000" display="block" overflow="visible" rx=".1" ry=".1" style="marker:none"/><path fill="#fff" d="M11 30.2a.8.8 0 1 1-1.6 0 .8.8 0 0 1 1.6 0zm0-11.5a.8.8 0 1 1-1.6 0 .8.8 0 0 1 1.6 0z"/><path fill="url(#n)" d="M10 30a.8.8 0 1 1-1.6 0 .8.8 0 0 1 1.6 0z" transform="translate(.6)"/><path fill="url(#o)" d="M10 18.5a.8.8 0 1 1-1.6 0 .8.8 0 0 1 1.6 0z" transform="translate(.6)"/><path fill="none" d="M11.5 5.5v37.9"/><path fill="none" stroke="#fff" stroke-opacity=".2" d="M12.5 5v38"/><g fill="#9b9b9b" fill-opacity=".5" color="#000" transform="matrix(.91 0 0 1 2.4 0)"><rect width="22" height="1" x="15" y="9" display="block" overflow="visible" rx=".2" ry=".1" style="marker:none"/><rect width="22" height="1" x="15" y="11" display="block" overflow="visible" rx=".2" ry=".1" style="marker:none"/><rect width="22" height="1" x="15" y="13" display="block" overflow="visible" rx=".2" ry=".1" style="marker:none"/><rect width="22" height="1" x="15" y="15" display="block" overflow="visible" rx=".2" ry=".1" style="marker:none"/><rect width="22" height="1" x="15" y="17" display="block" overflow="visible" rx=".2" ry=".1" style="marker:none"/><rect width="22" height="1" x="15" y="19" display="block" overflow="visible" rx=".2" ry=".1" style="marker:none"/><rect width="22" height="1" x="15" y="21" display="block" overflow="visible" rx=".2" ry=".1" style="marker:none"/><rect width="22" height="1" x="15" y="23" display="block" overflow="visible" rx=".2" ry=".1" style="marker:none"/><rect width="9.9" height="1" x="15" y="25" display="block" overflow="visible" rx=".1" ry=".1" style="marker:none"/><rect width="22" height="1" x="15" y="29" display="block" overflow="visible" rx=".2" ry=".1" style="marker:none"/><rect width="22" height="1" x="15" y="31" display="block" overflow="visible" rx=".2" ry=".1" style="marker:none"/><rect width="22" height="1" x="15" y="33" display="block" overflow="visible" rx=".2" ry=".1" style="marker:none"/><rect width="22" height="1" x="15" y="35" display="block" overflow="visible" rx=".2" ry=".1" style="marker:none"/><rect width="15.4" height="1" x="15" y="37" display="block" overflow="visible" rx=".1" ry=".1" style="marker:none"/></g></svg>