<svg xmlns="http://www.w3.org/2000/svg" xmlns:xlink="http://www.w3.org/1999/xlink" viewBox="0 0 48 48"><defs><linearGradient id="d"><stop offset="0" stop-color="#fff"/><stop offset="1" stop-color="#fff" stop-opacity="0"/></linearGradient><linearGradient id="c"><stop offset="0" stop-color="#888a85"/><stop offset="1" stop-color="#b8b9b6"/></linearGradient><linearGradient id="f"><stop offset="0"/><stop offset="1" stop-opacity="0"/></linearGradient><linearGradient id="b"><stop offset="0" stop-color="#888a85"/><stop offset="1" stop-color="#888a85" stop-opacity="0"/></linearGradient><linearGradient id="a"><stop offset="0" stop-color="#fff"/><stop offset="1" stop-color="#fff" stop-opacity="0"/></linearGradient><linearGradient xlink:href="#a" id="j" x1="21" x2="21.1" y1="31.9" y2="-4.6" gradientUnits="userSpaceOnUse"/><linearGradient xlink:href="#b" id="k" x1="46.5" x2="40.8" y1="35.2" y2="34.1" gradientTransform="matrix(.885 0 0 .885 5.3 6)" gradientUnits="userSpaceOnUse"/><linearGradient xlink:href="#c" id="i" x1="23.8" x2="29" y1="12.8" y2="25.8" gradientUnits="userSpaceOnUse"/><linearGradient xlink:href="#d" id="l" x1="43.7" x2="26.6" y1="32.1" y2="32.1" gradientTransform="translate(0 2)" gradientUnits="userSpaceOnUse"/><radialGradient id="e" cx="9.3" cy="22.6" r="14.2" fx="9.3" fy="22.6" gradientUnits="userSpaceOnUse"><stop offset="0" stop-color="#767676"/><stop offset="1" stop-color="#484848"/></radialGradient><radialGradient xlink:href="#e" id="h" cx="20.7" cy="24.7" r="14.2" fx="20.7" fy="24.7" gradientTransform="translate(2 9.2)" gradientUnits="userSpaceOnUse"/><radialGradient xlink:href="#f" id="g" cx="23.2" cy="27" r="21.6" fx="23.2" fy="27" gradientTransform="matrix(1 0 0 .664 0 9)" gradientUnits="userSpaceOnUse"/></defs><path fill="url(#g)" fill-rule="evenodd" d="M44.7 27a21.6 14.3 0 1 1-43.1 0 21.6 14.3 0 1 1 43.1 0z" color="#000" opacity=".7" overflow="visible" style="marker:none" transform="translate(1.2 .8)"/><path fill="#a1a39f" fill-rule="evenodd" stroke="#6d6f6a" stroke-linecap="round" stroke-linejoin="round" stroke-width=".7" d="M40.5 21A14.8 8.3 0 1 1 11 21a14.8 8.3 0 1 1 29.5 0z" color="#000" overflow="visible" style="marker:none" transform="matrix(1.254 0 0 1.542 -9.8 -6.3)"/><path fill="#555753" fill-rule="evenodd" d="M40.5 21A14.8 8.3 0 1 1 11 21a14.8 8.3 0 1 1 29.5 0z" color="#000" overflow="visible" style="marker:none" transform="matrix(.764 0 0 1.002 2.3 2.5)"/><path fill="url(#h)" stroke="#3b3d39" d="M46 41.2s-8.3-3.7-13.6-3.2c-5.7.5-15.2.8-19-5 15.9 4.7 23.2-3.2 33.9 1.2l-1.3 7z"/><path fill="url(#i)" fill-rule="evenodd" stroke="#757972" stroke-linecap="round" stroke-linejoin="round" stroke-width="1.2" d="M40.5 21A14.8 8.3 0 1 1 11 21a14.8 8.3 0 1 1 29.5 0z" color="#000" overflow="visible" style="marker:none" transform="matrix(.761 0 0 .987 3 .6)"/><path fill="#d3d7cf" fill-rule="evenodd" stroke="#888a85" stroke-linecap="round" stroke-linejoin="round" d="M21 7.7c-9.5.5-17 6.4-17 13.6 0 7.4 8.3 13.5 18.5 13.5S41 28.8 41 21.3 32.7 7.7 22.5 7.7h-1.4zM19.8 10h.5c3 0 5.3 1.7 5.3 3.8 0 2-2.4 3.7-5.3 3.7S15 15.8 15 13.7c0-2 2-3.6 4.7-3.8zm11.5 4.6h.5s0 0 0 0c3.2 0 5.7 1.8 5.7 4s-2.5 4-5.6 4c-3.1 0-5.6-1.8-5.6-4 0-2 2.1-3.8 5-4zM12 17.7h.7c3.2 0 5.8 1.8 5.8 4 0 2.4-2.6 4.2-5.8 4.2-3.2 0-5.8-1.8-5.8-4.1 0-2.1 2.2-4 5.1-4.1zm11.5 5s0 0 0 0a2.2 2.2 0 0 1 .2 0s0 0 0 0h.9c3.6 0 6.4 2.1 6.4 4.6 0 2.6-2.8 4.6-6.4 4.6-3.5 0-6.4-2-6.4-4.6 0-2.2 2.4-4.2 5.4-4.5z" color="#000" overflow="visible" style="marker:none"/><path fill="none" stroke="url(#j)" stroke-linecap="round" stroke-linejoin="round" stroke-width="1.1" d="M40.7 19a18.5 13.4 0 1 1-37 0 18.5 13.4 0 1 1 37 0z" color="#000" overflow="visible" style="marker:none" transform="matrix(.95 0 0 .938 1.5 3.3)"/><path fill="url(#k)" fill-rule="evenodd" d="m46.9 34.5-1.1 6c-2.6-.8-4.2-1.5-7-2.2l.3-5c1.9-.1 4.8.2 7.8 1.2z" color="#000" overflow="visible" style="marker:none"/><path fill="url(#l)" fill-rule="evenodd" d="m46.9 34.3-.2.9c-8.1-3-15.6-.2-23.4 0 10.6-.9 14.1-3.7 23.6-.9z" color="#000" opacity=".7" overflow="visible" style="marker:none"/></svg>