<svg xmlns="http://www.w3.org/2000/svg" xmlns:xlink="http://www.w3.org/1999/xlink" viewBox="0 0 48 48"><defs><linearGradient id="h"><stop offset="0" stop-color="#c4d7eb"/><stop offset="1" stop-color="#c4d7eb" stop-opacity="0"/></linearGradient><linearGradient id="g"><stop offset="0" stop-color="#3977c3"/><stop offset="1" stop-color="#89aedc" stop-opacity="0"/></linearGradient><linearGradient id="f"><stop offset="0" stop-color="#729fcf"/><stop offset="1" stop-color="#528ac5"/></linearGradient><linearGradient id="e"><stop offset="0" stop-color="#b9cfe7"/><stop offset="1" stop-color="#729fcf"/></linearGradient><linearGradient id="d"><stop offset="0" stop-color="#3465a4"/><stop offset="1" stop-color="#3465a4"/></linearGradient><linearGradient id="b"><stop offset="0" stop-color="#3465a4"/><stop offset="1" stop-color="#3465a4" stop-opacity="0"/></linearGradient><linearGradient id="a"><stop offset="0" stop-color="#3465a4"/><stop offset=".3" stop-color="#5b86be"/><stop offset="1" stop-color="#83a8d8" stop-opacity="0"/></linearGradient><linearGradient id="c"><stop offset="0" stop-color="#fff"/><stop offset="1" stop-color="#fff" stop-opacity="0"/></linearGradient><linearGradient id="i"><stop offset="0"/><stop offset="1" stop-opacity="0"/></linearGradient><linearGradient xlink:href="#a" id="k" x1="13.5" x2="15.4" y1="10.6" y2="19.1" gradientTransform="translate(.5 -.3)" gradientUnits="userSpaceOnUse"/><linearGradient xlink:href="#b" id="l" x1="37.1" x2="37.1" y1="29.7" y2="26.2" gradientTransform="rotate(180 23.8 23)" gradientUnits="userSpaceOnUse"/><linearGradient xlink:href="#c" id="s" x1="6" x2="52.9" y1="26" y2="26" gradientUnits="userSpaceOnUse"/><linearGradient xlink:href="#c" id="r" x1="6" x2="52.9" y1="26" y2="26" gradientUnits="userSpaceOnUse"/><linearGradient xlink:href="#d" id="n" x1="46.8" x2="45.4" y1="45.3" y2="50.9" gradientUnits="userSpaceOnUse"/><linearGradient xlink:href="#e" id="m" x1="62.5" x2="16" y1="36.1" y2="20.6" gradientUnits="userSpaceOnUse"/><linearGradient xlink:href="#f" id="q" x1="18.9" x2="53.6" y1="23.7" y2="26.6" gradientUnits="userSpaceOnUse"/><linearGradient xlink:href="#g" id="p" x1="36.7" x2="37.1" y1="31.5" y2="24.8" gradientUnits="userSpaceOnUse"/><linearGradient xlink:href="#h" id="o" x1="32.6" x2="37.1" y1="30.7" y2="24.8" gradientUnits="userSpaceOnUse"/><radialGradient xlink:href="#i" id="j" cx="24.8" cy="36.4" r="15.6" fx="24.8" fy="36.4" gradientTransform="matrix(1 0 0 .537 0 16.9)" gradientUnits="userSpaceOnUse"/></defs><path fill="url(#j)" fill-rule="evenodd" d="M40.5 36.4a15.6 8.4 0 1 1-31.3 0 15.6 8.4 0 1 1 31.3 0z" color="#000" opacity=".4" overflow="visible" style="marker:none" transform="matrix(-1.49 0 0 -1.001 61.2 75.3)"/><path fill="url(#k)" stroke="url(#l)" d="M20.2 10.4s-9-.6-6.2 9.9H6.3s.5-11.9 13.9-9.9z" color="#000" display="block" overflow="visible" style="marker:none"/><path fill="url(#m)" stroke="url(#n)" stroke-width="1.3" d="M44.3 50.2c18.5-14.4 5.4-36.8-21.8-37.7L22 3.2 7.6 20.5l15.1 12.7-.2-9.9c18.8 1 33 14.1 21.8 27z" color="#000" display="block" overflow="visible" style="marker:none" transform="matrix(-.58 -.49 -.49 .58 57 13.4)"/><path fill="url(#o)" stroke="url(#p)" d="M28.4 33.4s9 .7 6.2-9.8h7.7c0 1.5-.5 11.8-14 9.8z" color="#000" display="block" overflow="visible" style="marker:none"/><path fill="url(#q)" stroke="url(#n)" stroke-width="1.3" d="M44.3 50.2c18.5-14.4 5.4-36.8-21.8-37.7l-.1-9.4L7.8 20.4 22.5 33v-9.7c18.8 1 33 14.1 21.8 27z" color="#000" display="block" style="marker:none" transform="matrix(.58 .49 .49 -.58 -8 30.5)"/><path fill="#fff" d="m7 38.2.1-14.9 13-.4-4.4 5.2 3.8 2.4c-3 2.2-4.5 2.4-5.5 5l-2.8-2.1L7 38.2z" color="#000" opacity=".3" overflow="visible" style="marker:none"/><g opacity=".5"><path fill="none" stroke="url(#r)" stroke-width="1.5" d="M51 46c9.2-15.3-4.4-33.8-31.5-34V3.6l-13 15.6 12.9 11v-9c17.6-.3 35.2 10 31.7 24.6z" color="#000" display="block" opacity="1" overflow="visible" style="marker:none" transform="matrix(.509 .43 .43 -.509 -4 30.5)"/></g><g opacity=".5"><path fill="none" stroke="url(#s)" stroke-width="1.5" d="M51.4 46.5c9.1-15.2-4.3-34-31.8-34.4l-.3-8-13 15.3 13.5 11.4-.2-9.5c18.3.4 34.8 11 31.8 25.2z" color="#000" display="block" opacity="1" overflow="visible" style="marker:none" transform="matrix(-.509 -.43 -.43 .509 53 13.4)"/></g><path fill="#fff" d="M6.8 16.5C10.4 6.1 23.3 10.4 27 12c4.2.2 5.7-2.8 9-3C22-.8 7.2 2.5 6.8 16.5z" color="#000" opacity=".3" overflow="visible" style="marker:none"/></svg>